<?xml version="1.0" encoding="utf-8"?>
<!-- Generator: Adobe Illustrator 19.2.1, SVG Export Plug-In . SVG Version: 6.00 Build 0)  -->
<svg version="1.1" id="Layer_1" xmlns="http://www.w3.org/2000/svg" xmlns:xlink="http://www.w3.org/1999/xlink" x="0px" y="0px"
	 viewBox="0 0 1039 170" style="enable-background:new 0 0 1039 170;" xml:space="preserve">
<style type="text/css">
	.st0{fill-rule:evenodd;clip-rule:evenodd;fill:#d6d9d0;}
</style>
<path class="st0" d="M1036.6,39h-1.1h-1.6v8h2v3h1v-3h2v-8H1036.6L1036.6,39z M1029,44v-8h-1v8h-2v6h2v3h1v-3h2v-6H1029L1029,44z
	 M1021,41V31h-1v10h-2v9h2v3h1v-3h2v-9H1021L1021,41z M1013,28v-3h-1v3h-2v11h2v2h1v-2h2V28H1013L1013,28z M1005,28v-1h-2v1h-2v15h2
	v6h2v-6h2V28H1005L1005,28z M997,48v-1h-2v1h-2v23h2v2h2v-2h2V48H997L997,48z M989,69v-2h-1v2h-2v2h2v7h1v-7h2v-2H989L989,69z
	 M981,69v-5h-1v5h-2v11h2v3h1v-3h2V69H981L981,69z M972,79v-6h-1v6h-2v2h2v2h1v-2h2v-2H972L972,79z M964,78v-2h-1v2h-2v11h2v7h1v-7
	h2V78H964L964,78z M956,88v-1h-1v1h-2v10h2v2h1v-2h2V88H956L956,88z M949,90v-1h-1v1h-2v7h2v3h1v-3h2v-7H949L949,90z M940,83v-7h-1
	v7h-2v7h2v2h1v-2h2v-7H940L940,83z M932,74v-3h-1v3h-2v10h2v3h1v-3h2V74H932L932,74z M924,74v-5h-1v5h-2v13h2v1h1v-1h2V74H924
	L924,74z M916,84v-7h-1v7h-2v3h2v1h1v-1h2v-3H916L916,84z M908,69v-2h-1v2h-2v15h2v2h1v-2h2V69H908L908,69z M900,70v-4h-1v4h-2v7h2
	l0,0h1l0,0h2v-7H900L900,70z M893,70v-9h-2v9h-2v8h2l0,0h2l0,0h1v-8H893L893,70z M884,71v-5h-1v5h-2v10h2v1h1v-1h2V71H884L884,71z
	 M876,66v-3h-1v3h-2v14h2v1h1v-1h2V66H876L876,66z M868,67v-3h-1v3h-2v9h2v4h1v-4h2v-9H868L868,67z M860,76v-2h-1v2h-2v6h2v11h1V82
	h2v-6H860L860,76z M852,82L852,82h-1l0,0h-2v5h2v15h1V87h2v-5H852L852,82z M844.2,72h-1.1H841v14h2v2h1v-2h2V72H844.2L844.2,72z
	 M836,72v-4h-1v4h-2v3h2v6h1v-6h2v-3H836L836,72z M828,74v-3h-1v3h-2v24h2v1h1v-1h2V74H828L828,74z M820,86v-3h-1v3h-2v12h2v2h1v-2
	h2V86H820L820,86z M812,86v-2h-1v2h-2v3h2v7h1v-7h2v-3H812L812,86z M804,62v-4h-1v4h-2v25h2v3h1v-3h2V62H804L804,62z M796,64v-2h-1
	v2h-2v15h2v1h1v-1h2V64H796L796,64z M788,76V65h-1v11h-2v3h2v3h1v-3h2v-3H788L788,76z M780,61v-3h-1v3h-2v14h2v7h1v-7h2V61H780
	L780,61z M772,62v-2h-1v2h-2v16h2v7h1v-7h2V62H772L772,62z M764,79v-3h-1v3h-2v9h2v6h1v-6h2v-9H764L764,79z M756,87v-1h-1v1h-2v22h2
	v3h1v-3h2V87H756L756,87z M748,111v-4h-1v4h-2v19h2.2h1.1h1.7v-19H748L748,111z M740,130v-4h-1v4h-2v1h2v4h1v-4h2v-1H740L740,130z
	 M732,130v-18h-1v18h-2v2h2v6h1v-6h2v-2H732L732,130z M724,130v-5h-1v5h-2v7h2v5h1v-5h2v-7H724L724,130z M716,125v-2h-1v2h-2v12h2v7
	h1v-7h2v-12H716L716,125z M708,124v-2h-1v2h-2v23h1.9h1.1h2v-23H708L708,124z M700,135v-3h-1v3h-2v12h2v6h1v-6h2v-12H700L700,135z
	 M692,137v-1h-1v1h-2v14h2v4h1v-4h2v-14H692L692,137z M684,146v-4h-1v4h-2v6h2l0,0h1l0,0h2v-6H684L684,146z M676,145v-1h-1v1h-2v4h2
	v4h1v-4h2v-4H676L676,145z M668,137v-1h-1v1h-2v12h1.7h1.1h2.2v-12H668L668,137z M660,131v-7h-1v7h-2v8h2v4h1v-4h2v-8H660L660,131z
	 M652,128v-15h-1v15h-2v4h2v1h1v-1h2v-4H652L652,128z M644,128v-3h-1v3h-2v1h2v8h1v-8h2v-1H644L644,128z M636,128v-2h-1v2h-2v1h2v12
	h1v-12h2v-1H636L636,128z M628,127v-2h-1v2h-2v23h2v2h1v-2h2v-23H628L628,127z M620,151v-5h-1v5h-2v3h2v5h1v-5h2v-3H620L620,151z
	 M612,138v-1h-1v1h-2v13h2v6h1v-6h2v-13H612L612,138z M604,139v-4h-1v4h-2v17h2v3h1v-3h2v-17H604L604,139z M596,155v-3h-1v3h-2v10h2
	v1h1v-1h2v-10H596L596,155z M588,163v-15h-1v15h-2v1h2v5h1v-5h2v-1H588L588,163z M580,159v-8h-1v8h-2v4h2v4h1v-4h2v-4H580L580,159z
	 M572,159v-2h-1v2h-2v5h2v6h1v-6h2v-5H572L572,159z M564,156v-3h-1v3h-2v7h2v5h1v-5h2v-7H564L564,156z M556,135v-3h-1v3h-2v21h2v1h1
	v-1h2v-21H556L556,135z M548,134v-8h-2v8h-2v11h2v2h2v-2h2v-11H548L548,134z M540,134v-3h-1v3h-2v11h2v6h1v-6h2v-11H540L540,134z
	 M532,130v-3h-1v3h-2v4h2v13h1v-13h2v-4H532L532,130z M524,129v-7h-1v7h-2v10h2v10h1v-10h2v-10H524L524,129z M516,138v-6h-1v6h-2v1
	h2v3h1v-3h2v-1H516L516,138z M507,130v-13h-1v13h-2v7h2v3h1v-3h2v-7H507L507,130z M500,106v-1h-2v1h-2v15h2v3h2v-3h2v-15H500
	L500,106z M492,95v-3h-1v3h-2v11h2v3h1v-3h2V95H492L492,95z M483,95v-4h-1v4h-2v22h2v8h1v-8h2V95H483L483,95z M476,115v-3h-2v3h-1
	v11h1v3h2v-3h2v-11H476L476,115z M467.6,102h-1.1H465v26h2v2h1v-2h2v-26H467.6L467.6,102z M459,103v-4h-1v4h-2v9h2v2h1v-2h2v-9H459
	L459,103z M452,110v-4h-2v4h-1v15h1v3h2v-3h2v-15H452L452,110z M443,130v-4h-1v4h-2v6h2v8h1v-8h2v-6H443L443,130z M435,134v-15h-1
	v15h-2v2h2v8h1v-8h2v-2H435L435,134z M427,136v-18h-1v18h-2v7h2v1h1v-1h2v-7H427L427,136z M419,142v-7h-1v7h-2v4h2v6h1v-6h2v-4H419
	L419,142z M411,131v-7h-1v7h-2v13h2v2h1v-2h2v-13H411L411,131z M403,124v-4h-1v4h-2v8h2v10h1v-10h2v-8H403L403,124z M395.3,116h-1.1
	H392v15h2v8h1v-8h2v-15H395.3L395.3,116z M388,121v-11h-2v11h-1v9h1v1h2v-1h2v-9H388L388,121z M379,95v-1h-1v1h-2v26h2v6h1v-6h2V95
	H379L379,95z M371,91v-4h-1v4h-2v4h2v4h1v-4h2v-4H371L371,91z M363,89v-7h-1v7h-2v4h2v2h1v-2h2v-4H363L363,89z M355,73V63h-1v10h-2
	v14h2v2h1v-2h2V73H355L355,73z M347,69V57h-1v12h-2v3h2v1h1v-1h2v-3H347L347,69z M339,55v-3h-1v3h-2v12h2v2h1v-2h2V55H339L339,55z
	 M331,51v-5h-1v5h-2v15h2l0,0h1l0,0h2V51H331L331,51z M323,63v-9h-1v9h-2v1h2v12h1V64h2v-1H323L323,63z M315,62v-1h-1v1h-2v4h2v7h1
	v-7h2v-4H315L315,62z M307,64V51h-1v13h-2v1h2v4h1v-4h2v-1H307L307,64z M299,32v-1h-1v1h-2v28h2v3h1v-3h2V32H299L299,32z M291,18v-2
	h-1v2h-2v11h2v5h1v-5h2V18H291L291,18z M283,18v-2h-1v2h-2v19h2v6h1v-6h2V18H283L283,18z M275,36v-4h-1v4h-2v1h2v12h1V37h2v-1H275
	L275,36z M267,35v-2h-1v2h-2v18h2l0,0h1l0,0h2V35H267L267,35z M259,50v-2h-1v2h-2v16h2v1h1v-1h2V50H259L259,50z M251,67v-2h-1v2h-2
	v1h2v12h1V68h2v-1H251L251,67z M243,53v-5h-1v5h-2v14h2v1h1v-1h2V53H243L243,53z M235,52v-6h-1v6h-2v2h2v7h1v-7h2v-2H235L235,52z
	 M227,47v-2h-1v2h-2v6h2v10h1V53h2v-6H227L227,47z M219,47V31h-1v16h-2v4h2v2h1v-2h2v-4H219L219,47z M211,10V8h-1v2h-2v42h2v2h1v-2
	h2V10H211L211,10z M203,10V0h-1v10h-2v2h2v1h1v-1h2v-2H203L203,10z M195,12v-2h-1v2h-2v17h2v3h1v-3h2V12H195L195,12z M187,31V19h-1
	v12h-2v7h2v2h1v-2h2v-7H187L187,31z M179,19v-2h-1v2h-2v19h2v7h1v-7h2V19H179L179,19z M171,18v-1h-1v1h-2v16h2v4h1v-4h2V18H171
	L171,18z M163,32v-4h-1v4h-2v21h2v6h1v-6h2V32H163L163,32z M155,54v-5h-1v5h-2v4h2v5h1v-5h2v-4H155L155,54z M147,58v-2h-1v2h-2v1h2
	v10h1V59h2v-1H147L147,58z M139,59v-1h-1v1h-2v12h2v14h1V71h2V59H139L139,59z M131,73v-4h-1v4h-2v7h2v7h1v-7h2v-7H131L131,73z
	 M123,83v-1h-1v1h-2v17h2v3h1v-3h2V83H123L123,83z M115,100v-3h-1v3h-2v5h2v16h1v-16h2v-5H115L115,100z M107,105v-2h-1v2h-2v3h2v12
	h1v-12h2v-3H107L107,105z M99,105v-3h-1v3h-2v11h2v4h1v-4h2v-11H99L99,105z M91,116v-7h-1v7h-2v10h2v5h1v-5h2v-10H91L91,116z
	 M75,118v-4h-1v4h-2v16h2v4h1v-4h2v-16H75L75,118z M67,135v-14h-1v14h-2v4h2v3h1v-3h2v-4H67L67,135z M43,108L43,108h-1l0,0h-2v8h2
	v10h1v-10h2v-8H43L43,108z M35,116v-1h-1v1h-2v18h2v9h1v-9h2v-18H35L35,116z M3,105v-1H2v1H0v8h2v6h1v-6h2v-8H3L3,105z M11,102v-1
	h-1v1H8v3h2v10h1v-10h2v-3H11L11,102z M83,116v-1h-1v1h-2v8h2v6h1v-6h2v-8H83L83,116z M58.7,114h-1.1H56v25h2v3h1v-3h2v-25H58.7
	L58.7,114z M51,108v-1h-1v1h-2v5h2v4h1v-4h2v-5H51L51,108z M19,102v-1h-1v1h-2v30h2v1h1v-1h2v-30H19L19,102z M27,131v-7h-1v7h-2v8h2
	v2h1v-2h2v-8H27L27,131z M938,83h4v7h-4V83L938,83z"/>
</svg>
